{
    "asset" : {
        "generator" : "Khronos glTF Blender I/O v3.3.36",
        "version" : "2.0"
    },
    "scene" : 0,
    "scenes" : [
        {
            "name" : "Scene",
            "nodes" : [
                0
            ]
        }
    ],
    "nodes" : [
        {
            "name" : "Area.001",
            "rotation" : [
                -0.9900000691413879,
                0,
                0,
                0.14106692373752594
            ],
            "translation" : [
                0.3060365915298462,
                0.8280643224716187,
                -3.639082431793213
            ]
        }
    ],
    "animations" : [
        {
            "channels" : [
                {
                    "sampler" : 0,
                    "target" : {
                        "node" : 0,
                        "path" : "translation"
                    }
                },
                {
                    "sampler" : 1,
                    "target" : {
                        "node" : 0,
                        "path" : "rotation"
                    }
                },
                {
                    "sampler" : 2,
                    "target" : {
                        "node" : 0,
                        "path" : "scale"
                    }
                }
            ],
            "name" : "Area.001",
            "samplers" : [
                {
                    "input" : 0,
                    "interpolation" : "LINEAR",
                    "output" : 1
                },
                {
                    "input" : 0,
                    "interpolation" : "LINEAR",
                    "output" : 2
                },
                {
                    "input" : 0,
                    "interpolation" : "LINEAR",
                    "output" : 3
                }
            ]
        }
    ],
    "accessors" : [
        {
            "bufferView" : 0,
            "componentType" : 5126,
            "count" : 100,
            "max" : [
                4.166666666666667
            ],
            "min" : [
                0.041666666666666664
            ],
            "type" : "SCALAR"
        },
        {
            "bufferView" : 1,
            "componentType" : 5126,
            "count" : 100,
            "type" : "VEC3"
        },
        {
            "bufferView" : 2,
            "componentType" : 5126,
            "count" : 100,
            "type" : "VEC4"
        },
        {
            "bufferView" : 3,
            "componentType" : 5126,
            "count" : 100,
            "type" : "VEC3"
        }
    ],
    "bufferViews" : [
        {
            "buffer" : 0,
            "byteLength" : 400,
            "byteOffset" : 0
        },
        {
            "buffer" : 0,
            "byteLength" : 1200,
            "byteOffset" : 400
        },
        {
            "buffer" : 0,
            "byteLength" : 1600,
            "byteOffset" : 1600
        },
        {
            "buffer" : 0,
            "byteLength" : 1200,
            "byteOffset" : 3200
        }
    ],
    "buffers" : [
        {
            "byteLength" : 4400,
            "uri" : "gamescene.bin"
        }
    ]
}
