<?xml version="1.0" encoding="UTF-8"?>
<svg id="Laag_2" data-name="Laag 2" xmlns="http://www.w3.org/2000/svg" viewBox="0 0 407.55 593.43">
  <defs>
    <style>
      .cls-1 {
        fill: #e5231e;
        stroke-width: 0px;
      }
    </style>
  </defs>
  <g id="Laag_1-2" data-name="Laag 1">
    <g>
      <path class="cls-1" d="m112.26,408.31c2.92,2.38,6.53,4.28,8.64,7.25,5.1,7.19,9.43,14.91,14.2,22.34,8.12,12.64,18,23.51,31.35,30.88,9.79,5.4,20.37,8.06,31.39,9.08,5.14.48,10.31.64,15.47.89,8.59.42,16.3-1.79,21.99-8.55,6.18-7.35,12.26-14.82,17.85-22.61,1.66-2.32,1.56-5.9,2.27-8.9-.63-.3-1.26-.6-1.89-.9-2.1,2-4.38,3.83-6.26,6.02-4.01,4.68-7.98,9.42-11.67,14.35-6.39,8.53-15.08,12.2-25.41,12.71-.33.02-.67-.03-1,.02-21.25,3.11-37.68-5.85-52.38-20.15-11.89-11.57-22.9-23.74-31.42-38.02-1.83-3.07-3.25-6.38-4.02-10.34.93.42,2.17.59,2.73,1.3,5.92,7.54,11.7,15.19,17.58,22.76,4.68,6.01,9.2,12.18,14.28,17.84,3.42,3.81,7.57,7.03,11.66,10.16,1.66,1.27,4.04,1.58,6.81,2.59,1.76,7.06,8.92,7.38,15.03,8.57,7.89,1.53,15.75,1.62,23.28-2.72,2.56-1.48,6.36-1.01,9.59-1.03,2.05-.01,4.1.72,6.15,1.12.3-.39.6-.78.9-1.17-1.24-1.51-2.23-3.37-3.76-4.47-5.17-3.7-12.48-3.08-17.47.98-1.05.85-2.72,1.61-3.97,1.43-15.34-2.17-29.05-7.83-39.97-19.55,18.61,8.49,37.11,17.27,55.02-.59.98.89,1.32,1.22,1.68,1.52,1.41,1.18,2.83,2.36,4.25,3.54,1.55-2.54,3.09-5.09,4.64-7.63-1.01-.55-1.96-1.31-3.04-1.58-1.54-.38-3.18-.4-4.77-.58.93-2.19,1.41-4.8,2.96-6.38.8-.82,3.89-.44,5.22.46,3.85,2.61,4.98,9.4,2.99,14.64-1.08,2.85-2.08,5.73-3.11,8.6.46.37.93.74,1.39,1.11,1.54-1.18,3.4-2.11,4.57-3.59,2.67-3.4,4.91-7.13,7.5-10.6,3.19-4.26,6.37-8.47,12.14-9.79,1.55-.35,2.62-2.65,4.01-3.94,1.41-1.31,2.96-2.47,4.45-3.7.63,1.83,1.67,3.63,1.79,5.49.12,1.93-1.02,3.93-.92,5.87.08,1.6,1.16,3.15,1.8,4.73,1.3-.86,3.07-1.44,3.81-2.64,1.37-2.24,2.45-4.76,3.11-7.31,4.33-16.55,4.88-33.23.87-49.92-.79-3.3-1.64-7.23-6.96-5.5-.55.18-2.64-2.22-2.87-3.61-1.19-7.38-1.4-14.96-3.06-22.21-4.72-20.68-11.33-40.72-22.78-58.81-1.77-2.8-4.01-5.31-6.07-7.93-.38-.49-.93-.85-2.1-.9,2.18,4.76,3.95,9.76,6.61,14.24,13.84,23.31,17.68,49.24,20.25,75.53.26,2.64.09,5.33.09,8,0,3.58-1.51,6.23-5.08,7.08-7.43,1.77-9.31,7.41-9.8,13.9-.52,6.98-.61,13.99-1.1,20.97-.18,2.63-.68,5.3-1.55,7.77-.42,1.17-2.07,1.9-3.16,2.84-.39-.35-.78-.7-1.17-1.05.53-1.84,1.06-3.67,1.79-6.2-2.25.65-4.12,1.18-6.24,1.79,5.49-27.26,5.45-54.17.59-81.09-.18-.98-1.15-1.82-2.39-3.68-2.69,8.54,1.9,17.1-2.86,24.53-2.99-2.72-8.64-44.86-6.91-51.56,1.3,1.94,2.32,3.25,3.11,4.69,2.09,3.78,3.82,7.79,6.2,11.36,1.21,1.81,3.38,3.79,5.38,4.13,5.85.99,6.9,4.98,7.26,9.73.65,8.8,1.1,17.62,1.99,26.4.3,2.95,1.68,5.8,2.77,9.35,5.08-6.73,2.46-41.97-5.2-58.02-8.41-17.6-18.63-34.34-28.08-51.5,2.12.24,4.62.51,7.42.82-4.02-10.18-39.12-14.05-47.97-5.28,2.1.36,3.81,1.02,5.45.88,14.87-1.22,25.45,6.52,34.48,16.87,10.62,12.16,18.06,26.32,24.07,41.22.59,1.47-.11,3.47-.22,5.22-1.58-.97-3.74-1.57-4.63-2.97-2.75-4.35-5.05-8.99-7.46-13.55-3.41-6.45-4.4-6.62-9.16-1.47-.31.33-.83.47-1.82,1-.24-1.71-.8-3.17-.57-4.5,1.71-9.84-3.28-17.38-8.45-24.8-7.9-11.33-17.7-14.46-30.92-10.23-2.65.85-4.09,1.96-4,5.25.07,2.26-1.46,4.64-2.54,6.83-1,2.02-2.36,3.86-4.4,7.11,3.28-.96,5.17-1.34,6.91-2.07,2.45-1.02,4.79-2.34,7.19-3.47,12.61-5.94,13.67-8,24.21,6.98,8.86,12.6,12.2,27.27,13.77,42.28.95,9.09.88,18.29,1.14,27.44.12,4.5-.57,8.71-6.4,9.71,1.77,3.94,4.14,7.17,8.18,6.48,3.4-.58,6.5-2.97,9.7-4.55,5.2,5.78,5.11,20.94-.56,29.19-.48-4.79-.9-8.99-1.31-13.19-.34-.14-.68-.28-1.02-.41-.89,1.4-1.88,2.75-2.64,4.21-3.13,6.06-6.29,12.11-9.26,18.25-2.18,4.52-5.54,7.58-10.41,8.52-9.12,1.76-18.27,3.43-27.46,4.72-4.11.58-6.89-.97-9.29-5.36-5.15-9.39-12.67-17.09-21.65-23.13-1.32-.89-3.01-1.24-4.89-1.98,1.25-8.46-3.84-15.46-6.62-23.22-13.23-36.93-14.96-73.66,4.71-109.02,12.25-22.01,31.13-35.62,56.33-39.72,7.45-1.21,14.56.27,21.49,2.98,5.89,2.3,11.77,4.61,17.7,6.79,2.17.8,4.44,1.5,6.72,1.78,1.08.14,2.29-.81,3.44-1.26-.64-1.02-1.04-2.44-1.96-3-14.88-8.99-30.45-15.13-48.4-15.02-13.45.08-24.67,3.85-34.54,12.91-5.75,5.28-12.14,9.87-18.37,14.6-1.43,1.08-3.37,1.49-5.08,2.2l-1.01-1.07c.8-1.65,1.27-3.6,2.45-4.9,11.6-12.76,25.44-22.82,41.35-29,7.19-2.79,15.98-1.71,24.06-1.86,7.64-.14,15.29.42,22.94.64,4.56.13,8.21-1.68,10.35-5.72,2.08-3.95,4.89-4.04,8.27-2.14,2.9,1.63,5.55,3.86,8.61,5.02,4.22,1.6,8.68,2.7,13.12,3.56,9.12,1.76,16.76,6.17,23.24,12.62.78.78.83,3.5.1,4.3-.81.88-2.95.92-4.41.69-.94-.15-1.87-1.35-2.51-2.27-1.6-2.31-2.2-6.11-6.52-3.41-5.19,3.24-7.75,7.86-5.86,11.81,1.13,2.37,2.57,4.81,4.47,6.57,24.48,22.73,36.15,52.15,44.03,83.61,1.86,7.42,3.68,14.85,5.84,22.19.52,1.75,2.32,3.13,3.54,4.68,1.15-1.67,3.11-3.27,3.28-5.03.29-3.07.46-6.87-1.06-9.25-3.9-6.09-3.65-13.18-5.98-19.57-2.22-6.1-4.64-12.12-6.94-18.19-.65-1.71-1.31-3.42-1.76-5.19-1.33-5.3-.56-6.28,4.76-6.34.82-.01,1.65,0,3.04,0,1.03-9.98-4.44-18.28-6.46-28.25,6.58,6.31,10.88,12.93,11.28,21.4.12,2.48-.56,5.89-2.21,7.39-4.51,4.07-3.3,8.14-1.52,12.68,3.41,8.66,7.66,17.13,9.81,26.11,3.48,14.51,5.49,29.37,8.23,44.06.61,3.27,1.71,6.45,2.58,9.67.74-.04,1.48-.07,2.22-.11.39-2.59,1.18-5.19,1.09-7.76-.53-15.36-2.63-30.49-7.35-45.18-3.4-10.61-6.87-21.2-10.17-31.84-.97-3.13-2.28-6.48,2.42-8.33.97-.38,1.53-2.79,1.58-4.28.06-2.09-.54-4.2-.89-6.51,9.22,6.09,37.35,62.05,37.39,75.62-13.85-18.47-20.92-39.31-33.36-57.07,10.47,27.89,20.95,55.78,31.08,82.76.26-4.58.59-10.33.92-16.08.74-.08,1.48-.16,2.22-.24,1.14,2.64,2.87,5.18,3.33,7.93,3.14,19.01,6.35,38.02,8.84,57.12,1.4,10.71,1.31,21.61,2.29,32.39.21,2.33,2.2,4.49,3.29,6.76.54,1.13,1.48,2.53,1.19,3.49-.29.95-1.87,2.08-2.93,2.12-3.48.15-6.97-.08-10.46-.3-3.78-.24-6.8.62-7.04,5.04-.47,8.89-4.86,16.12-9.54,23.26-3.23,4.93-6.44,9.88-9.15,15.23,7.04.24,10.75-3.94,13.82-8.98,1.3-2.13,2.09-4.62,3.66-6.49,1.16-1.38,3.21-2.02,4.86-2.99.42.43.84.86,1.27,1.28-.77,1.66-1.28,3.52-2.34,4.96-15.19,20.51-33.93,37.39-54.56,52.52,3.42-4.98,6.83-9.96,10.25-14.94-.37-.47-.73-.93-1.1-1.4-3.29.37-6.59.74-11.42,1.29,2.29-3.88,3.82-6.84,5.69-9.58,2.81-4.12,6.07-7.94,8.65-12.19.81-1.33.07-3.6.05-5.45-1.69.45-3.69.47-4.99,1.43-2.91,2.18-5.47,4.82-8.71,7.77,4.1-9.51,7.94-18.62,11.95-27.65,5.66-12.77,9.07-26,9.61-40.04.18-4.72,1.71-9.38,2.63-14.07.8.05,1.61.1,2.41.15.31,2.1.91,4.21.89,6.31-.15,17.01-3.03,33.55-10.49,48.9-3.56,7.32-3.45,12.88,2.67,18.73,5.79,5.53,5.4,6-.63,11.22-2.14,1.85-4.4,3.63-6.16,5.81-2.17,2.68-1.18,4.75,2.18,5.27,3.45.53,7.41.36,8.31-3.59,1.29-5.7,3.85-10.08,9.25-12.6-5.78-6.46-5.75-7.52-1.02-14.62,3.31-4.98,7.12-9.81,9.37-15.27,1.83-4.45,1.67-9.72,2.34-14.19.98,1.14,2.66,3.09,4.44,5.16,2.86-4.95,1.65-10.03-2.2-12.22-1.61-.92-2.75-2.68-4.1-4.05,1.83-.82,3.63-1.73,5.51-2.43.73-.27,1.63-.04,2.47-.04-5.87-18.71-4.8-37.31-.19-55.84.5-2,3.13-3.39,4.42-5.3,1.54-2.29,3.47-4.73,3.81-7.29.43-3.21-2.42-3.53-5.25-4.38-2.95-.89-5.77-3.73-7.6-6.42-2.47-3.64-3.94-7.97-7.05-11.83.85,9.01,1.71,18.01,2.56,27.02-.39.15-.78.3-1.17.45-2.71-3.96-5.41-7.92-8.12-11.87-.46.12-.91.24-1.37.37-.37,13.7,1.2,27.25,3.24,40.77.49.07.98.14,1.47.22,1.21-3.73,2.43-7.47,3.64-11.2.36.03.73.05,1.09.08,0,4.29.22,8.59-.04,12.86-1.06,17.12-2.11,34.24-3.47,51.34-.93,11.72-4.7,17.91-14.14,25.12,2.83-9.7,6.25-19.59,8.5-29.74,1.9-8.57,2.7-17.43,3.47-26.2.49-5.6-1.39-10.55-3.86-15.92-3.34-7.28-4.29-16-4.73-24.19-.82-15.59-3.7-30.72-7.98-45.63-.98-3.43-3.01-6.55-4.55-9.82-.76.24-1.52.48-2.28.71.39,2.97.76,5.94,1.18,8.9,1.21,8.35,2.51,16.69,3.61,25.06.2,1.55-.37,3.2-1.71,5.11-.63-1.52-1.51-2.98-1.84-4.56-3.31-15.42-6.55-30.86-9.72-46.31-.3-1.44-.17-3-.02-4.48.26-2.55.4-4.46-2.67-6.01-1.71-.86-2.66-4.09-3.11-6.41-.73-3.74-.81-7.61-1.07-11.44-.37-5.39-1.08-10.58-5.08-14.77-1.1-1.15-1.84-2.81-2.31-4.37-5.5-18.14-16.75-32.84-28.51-47.13-6.45-7.83-13.26-15.47-20.72-22.32-4.52-4.15-10.51-6.76-16-9.78-1.34-.74-3.27-.39-4.94-.55-.21.4-.43.79-.64,1.19,1.03,1.36,1.87,2.92,3.12,4.02,1.99,1.75,4.25,3.2,6.4,4.77,2.69,1.97,6.06,3.43,7.91,6,3.42,4.74,5.85,9.94,12.89,10.51,1.51.12,2.56,4,4.1,5.91,6.07,7.52,12.19,14.99,18.4,22.39,4.55,5.43,8.07,11.26,9.74,18.3,3.78,16.02,7.94,31.94,11.85,47.93.51,2.07.75,4.31.58,6.43-.33,4.13.71,7.3,4.09,10.07,1.76,1.45,2.44,4.23,3.89,6.94-5.9-.18-10.9-4.15-12.12-10.35-3.54-17.91-12.43-33.63-19.63-50.04-1.11-2.54-2.2-5.1-2.45-8.16,4.59,6.25,9.17,12.5,13.76,18.74.46-.2.93-.39,1.39-.59-.62-2.41-.92-4.97-1.92-7.21-3.09-6.97-6.12-14.01-9.82-20.66-2.24-4.02-5.26-3.93-6.9.24-1.43,3.64-2.46,8.39-1.34,11.91,3.47,10.9,8.18,21.39,12.17,32.13,3.34,8.99,5.95,18.26,9.62,27.1,2.04,4.92,4.74,10.18,8.62,13.62,14.02,12.42,15.51,28.7,15.58,45.64,0,.97-.4,1.95-.72,2.9-.2.59-.6,1.11-1.03,1.87-3.74-1.21-4.03-4.16-4.26-7.16-.59-7.97-.87-15.98-1.87-23.9-.95-7.5-4.85-13.42-11.78-16.9-1.05-.53-2.66.04-4.01.1.27,1.21.12,2.99.88,3.55,6.07,4.53,6.57,11.39,7.43,17.89,1.72,13.07,2.57,26.19-.43,39.25-.68,2.95-1.55,5.35-5.36,5.37-1.01,0-2.82,1.75-2.82,2.7,0,1.36,1.03,3.58,2.12,3.95,6.13,2.08,6.37,6.98,5.57,11.83-3.52,21.23-8.65,42.01-18.73,61.26-.3.57-.46,1.21-.22.57,2.42,2.44,4.98,4.03,6.04,6.31,1.57,3.41-.18,6.58-3.15,8.65-12.54,8.74-25.11,17.43-37.77,25.99-1.84,1.25-4.24,1.68-7.86,3.06,2.62-4.26,4.49-7.32,6.44-10.5-4.33-1.47-8.29-2.28-11.72-4.08-5.98-3.14-6.32-7.13-.78-10.9,6.37-4.32,13.2-7.95,19.89-11.91,2.49,4.44,1.16,6.7-1.67,8.2-2.19,1.16-4.59,1.9-6.88,2.88-2.74,1.17-5.67,2.09-8.11,3.72-1.17.78-1.4,2.96-2.06,4.51,1.54.62,3.37,2.12,4.55,1.71,3.39-1.18,6.76-2.78,9.68-4.86,4.06-2.88,7.64-6.44,11.57-9.53,1.96-1.55,4.23-2.72,6.75-3.51-3.24,9.83-13.28,13.49-19.03,21.42,5.62.46,23.26-12.79,29.63-21.79-1.37,0-2.62.2-3.78-.04-4.13-.85-5.45-4.86-2.5-7.86,13.68-13.92,18.37-31.61,20.96-50.12.78-5.54-.27-6.18-7.21-4.87.53-6.12.97-11.94,1.56-17.75.79-7.78,1.68-15.55,2.54-23.33.13-1.16.03-2.52.61-3.41,1-1.55,2.45-2.81,3.71-4.19.67,1.67,1.83,3.32,1.9,5.01.09,2.45-.94,4.93-.85,7.38.05,1.33,1.45,2.6,2.24,3.9,1.02-1.06,2.88-2.07,2.94-3.18.39-7.63,1.03-15.32.4-22.9-.84-10.09-2.22-20.23-8.54-28.83-.95-1.29-1.55-3.03-1.76-4.64-3.47-25.8-14.98-48.83-24.73-72.48-8.34-20.25-19.8-38.24-35.43-53.85-23.05-23.05-48.74-17.92-69.34-3.79-24.2,16.6-34.93,40.73-35.83,69.57-.47,15.17-.67,30.4,3.77,45.13,6.36,21.06,17.54,39.4,32.47,55.48,3.61,3.89,8.14,5.68,13.49,5.17,3.81-.36,7.63-.64,11.44-1.08,4.53-.52,9.65.45,12.89-3.93,5.16-6.96,9.56-14.32,9.07-24.28-2.59,2.06-5.24,4.06-7.77,6.2-4.82,4.07-9.39,8.47-14.47,12.19-1.73,1.27-4.64.91-7.01,1.3-.21-2.33-1.04-4.83-.49-6.96,1.04-4.06.13-5.93-4-7.43-4.43-1.62-8.4-4.5-12.54-6.89-2.05-1.18-4.02-2.5-6.56-3.16.46,10.52,12.22,12.08,16.32,21.4-2.99-1.15-5.05-1.56-6.69-2.62-10.36-6.73-16.74-16.47-20.54-28.03-.4-1.22-.74-2.9-.22-3.9.81-1.56,2.37-3.74,3.64-3.76,1.33-.02,3,2.01,3.94,3.51.6.96.48,2.71.08,3.9-1.57,4.65-.72,6.1,4.69,5.59,3.14-.3,7.19,1.46,9.73,3.6,7.99,6.71,16.86,8.25,26.66,6.06,4.44-.99,7.21-3.48,7.67-8.5,1.31-14.56,3.98-29.08,4.13-43.63.16-14.86-4.79-28.81-13.91-40.9-3.28-4.35-7.35-7.55-13.93-7.22.28,1.69.65,2.9.65,4.11,0,1.19-.02,3.14-.65,3.43-5.21,2.42-5.69,7.49-6.98,12.02-1.63,5.75-2.77,11.65-4.5,17.37-.55,1.83-2.29,3.29-4.49,4.63.97-5.01.17-8.67-3.26-12.15-1.06-1.07.12-4.61.66-6.93.82-3.52,2.21-6.92,2.86-10.46.19-1.04-1.28-2.39-1.99-3.59-1.25.86-3.22,1.49-3.61,2.64-.95,2.8-.82,5.97-1.8,8.75-.61,1.75-2.44,3.07-3.72,4.58-.7-1.68-2.06-3.39-2-5.04.35-8.66.69-17.42,8.05-23.76.57-.49,1.02-1.4,1.08-2.14,1.55-19.87,28.76-39.39,52.17-24.27,3.86,2.5,8.37,3.99,13.6,6.42,0-2.7.24-3.71-.04-4.54-2.5-7.51-13.92-16.1-21.94-15.8-20.64.78-37.92,8.09-49.23,26.44-2.09,3.4-4.35,6.72-6.82,9.85-1.22,1.54-3.07,2.58-4.64,3.85-.39-.31-.78-.62-1.17-.94.86-1.62,1.88-3.19,2.55-4.89.95-2.4,1.52-4.94,2.48-7.34.77-1.94,1.44-4.22,2.88-5.55,8.94-8.21,17.64-16.79,27.28-24.11,10.51-7.97,29.08-6.92,39.18,1.46,8.96,7.45,18.03,14.91,26.01,23.35,5.28,5.57,9.4,12.54,12.85,19.48,6.29,12.64,11.71,25.72,17.43,38.64.58,1.31.78,2.79,1.41,5.14-5.7-2.95-9.46-6.67-10.53-11.98-2.43-12.03-8.75-22.25-14.52-32.7-3.37-6.1-7.45-11.82-11.37-17.61-1.65-2.45-3.41-5.38-7.19-3.09-2.95,1.79-3.69,6.42-1.61,9.83.34.56.7,1.23,1.23,1.55,16.2,9.69,20.65,27.08,27.73,42.65,3.01,6.63,4.78,13.82,7.16,20.74.48,1.41.85,3.01,1.78,4.09,1.41,1.64,3.25,2.89,4.91,4.31.4-2.05.8-4.09,1.19-6.14.37-1.92.73-3.84,1.09-5.76,1.5,1.34,3.77,2.4,4.36,4.06,2.53,7.18,4.85,14.46,6.71,21.83,2.35,9.35,4.2,18.83,6.22,28.26.16.76.02,1.58.02,2.37-.41.28-.82.57-1.23.85-1.4-1.67-3.47-3.13-4.08-5.05-2.31-7.27-4.06-14.71-6.21-22.03-1.26-4.28-2.89-8.45-4.35-12.66-.92.12-1.84.24-2.76.37-.13,2.68-.96,5.57-.25,8.01,2.15,7.48,4.92,14.79,7.4,22.18,2.57,7.68,5.66,15.25,7.42,23.11,1.5,6.7-.95,12.91-4.91,18.76-3.08,4.55-5.61,9.8-6.96,15.11-1.2,4.73-2.99,6.07-7.53,5.2-8.54-1.63-11.01,1.38-8,10.54,3.62-2.39,7.07-4.66,11.07-7.29-.62,5.66-3.27,8.68-8.19,9.14-5.74.54-10.98,2.88-13.25,7.79-10.74,23.26-48.33,27.6-68.46,19.07-34.06-14.44-56.51-40.19-69.5-74.52l-.11.09Zm156.81-136.46c.81-12.87-15.23-33.68-25.21-33.39.15.81.08,1.7.45,2.34,7.58,12.84,15.15,25.67,22.94,38.38.47.77,3.31,1.16,3.98.56,3.01-2.72,5.64-5.87,8.41-8.87-.21-.27-.42-.54-.63-.82-3.15.57-6.3,1.15-9.94,1.81Zm106.18,132.61c-2.4-1.04-4.44.59-5.43,3.65-1.9,5.82-.89,10.98,3.41,15.67,1.23,1.34,1.81,4.29,1.2,5.95-.39,1.06-3.51,1.22-5.45,1.54-1,.17-2.08-.19-4.13-.43,3.67,8.53,5.6,16.88,11,23.58.99-5.7.46-11.43,2.08-16.46,2.03-6.26,1.72-11.9.01-17.99-1.3-4.64-1.7-9.54-2.7-15.5Zm-133.94-198.62c3.3,12.49,20.27,18.51,29.69,12.06-1.55-4.88-3.86-6.07-11.05-4.78-4.84.86-8.67.04-12.12-3.73-1.58-1.72-4.31-2.4-6.51-3.55Z"/>
      <path class="cls-1" d="m402.88,286.48c-5.69-6.3-11.32-12.66-17.08-18.89-5.43-5.87-7.76-15.11-16.88-17.01-.64.41-1.28.81-1.92,1.22,1.52,3.49,2.57,7.3,4.66,10.42,5.91,8.86,12.28,17.42,18.39,26.16,1.16,1.66,1.94,3.6,2.89,5.41-.38.33-.76.67-1.13,1-1.77-1.24-3.9-2.18-5.24-3.78-6.42-7.65-12.79-15.36-18.88-23.27-11.65-15.12-24.8-28.76-39.62-40.79-1.09-.89-2.31-1.62-4.52-3.15,5.12,8.29,13.35,13.18,14.36,22.37-.45.41-.91.83-1.36,1.24-5.36-4.86-10.88-9.56-16.06-14.61-11.92-11.63-23.34-23.8-35.66-34.98-5.94-5.4-13.28-9.38-20.35-13.37-2.69-1.52-6.41-1.85-9.6-1.68-4.11.23-6.08,3.54-6.01,7.35.08,4.44,3.92,3.57,6.44,3.2,8.43-1.21,15.53,1.64,21.63,6.97,8.62,7.54,16.91,15.46,25.3,23.27.83.77,1.72,1.83,1.92,2.88,1.61,8.46,3.45,16.91,4.42,25.45.53,4.7-3.4,7.43-7.57,5.25-4.47-2.33-8.84-5.44-12.21-9.15-4.09-4.5-8.61-9.1-9.98-15.4l1.01-1.13c4.17,2.67,8.33,5.35,13.56,8.7-1.09-4.44-1.89-7.71-2.9-11.82,3.88.62,7,1.11,10.13,1.61.29-.39.59-.78.88-1.17-2.1-2.61-3.8-5.7-6.36-7.73-9.38-7.42-18.95-14.61-28.65-21.62-2.68-1.93-5.93-2.93-7.28,2.06-.2.72-2.76,1.69-3.43,1.27-15.14-9.44-32.56-11.13-49.41-14.73-.46-.1-.86-.47-2.24-1.27,2.39-.85,4.13-2.04,5.81-1.95,6.77.34,13.56.77,20.25,1.76,6.39.94,12.35,1.15,17.04-4.17,1.14-1.29,1.9-2.91,3.03-4.68-4.4-1.96-6.75.15-8.22,3.01-1.85,3.62-4.36,3.74-7.41,2.23-9.15-4.53-18.87-6.01-28.98-6.49-5.46-.26-12.06.67-14.72-6.66-.27-.74-2.45-1.43-3.38-1.11-.86.3-1.8,2.05-1.7,3.07.26,2.76,1.05,5.47,1.78,8.86-7.72-4.47-14-15.04-25.09-4.64,7.86,1.47,14.09,4.03,17.87,11.51-2.41.91-4.31,1.79-6.3,2.35-20.25,5.67-37.82,15.54-50.49,32.8-5.9,8.04-11.4,16.37-17.01,24.61-.83,1.22-1.33,2.67-1.91,4.04-.85,2-2.16,4.62,1.17,5.06,1.77.24,5.01-1.09,5.56-2.5,9.25-23.69,28.63-37.9,48.43-51.44,9.29-6.35,20.71-7.2,31.7-7.46,10.11-.24,20.25.6,30.36,1.25,2.05.13,4.01,1.56,6.01,2.39,0,.55,0,1.1-.01,1.65-1.84.85-3.63,2.29-5.52,2.44-3.62.28-7.48.51-10.91-.43-25.38-6.93-46.88,1.02-66.37,16.86-9.42,7.65-16.89,16.98-22.88,27.52-1.48,2.6-2.92,5.26-4.65,7.69-2.55,3.57-5.84,6-10.59,5.02-5.32-1.1-8.69,1.28-10.7,5.95-2.9,6.72-5.67,13.5-8.51,20.25-.63,1.49-1.32,2.95-2.21,4.93-1.28-8.1,4.87-25.19,15.74-44.23,7.88-13.81,17.69-26.12,28.51-37.8,10.96-11.83,24.88-18.67,39.25-25.28-8-1.42-15.63-.65-22.12,3.42-7.55,4.74-14.46,10.53-21.5,16.05-4.05,3.18-7.71,6.85-11.78,10.01-1.08.84-3.03.88-4.52.71-.47-.05-1.31-2.26-.96-2.96.68-1.35,1.91-2.71,3.25-3.37,1.59-.77,3.99-.27,5.23-1.29,1.62-1.33,3.61-3.78,3.39-5.47-.46-3.45-3.57-2.96-5.93-1.77-7.28,3.69-12.05,9.75-15.54,17-1.5,3.12-2.87,6.6-5.27,8.9-1.61,1.54-4.94,1.27-7.49,1.81.27-2.14-.2-4.85.94-6.31,5.92-7.6,12.24-14.9,18.45-22.27,3.04-3.61,6.13-7.16,9.61-11.22-5.54-1.67-8.54.76-11.33,3.36-12.55,11.7-22.19,25.69-30.96,40.29-4.11,6.84-7.5,14.1-11.32,21.11-1.55,2.85-3.39,5.55-5.09,8.31-.52-.18-1.05-.35-1.57-.53.43-2.07.53-4.27,1.34-6.18,6.4-15.16,12.48-30.44,23.59-43.13,3.38-3.86,4.81-9.38,7.57-13.87,1.77-2.89,3.85-6.09,6.62-7.79,10.75-6.59,21.84-12.63,32.81-18.87.36.36.72.72,1.09,1.08-4.12,3.24-8.25,6.48-12.37,9.72.59.73,1.18,1.45,1.77,2.18,18.23-7.25,34.96-17.14,51.2-29.74-2.24-.95-3.5-1.49-5.05-2.15,2.51-1.95,4.8-3.72,8.32-6.45-4.45-.76-7.38-1.26-10.87-1.85,5.27-5.55,14.84-4.91,16.66-13.95,1.93.42,3.99,1.2,6.06,1.2,1.43,0,3.87-.8,4.11-1.71,1.21-4.62,4.76-4.79,8.24-4.71,9.82.24,19.63.76,29.45,1.12,2.76.1,5.53.02,8.3.02.16-.41.31-.82.47-1.24-2.4-1.48-4.93-2.81-7.16-4.51-1.62-1.23-2.85-2.95-4.26-4.45,2.04-.76,4.06-2.1,6.12-2.16,3.26-.09,7.89-1,6.2,5.58,12.39-3.75,23.18-.58,32.66,6.69,3.25,2.49,5.01,6.91,7.44,10.45-.45.55-.9,1.11-1.35,1.66-1.97-.3-3.98-.45-5.89-.95-3.37-.89-6.65-2.17-10.04-2.98-4.18-1-8.14-1.17-11.31,2.84-2.87,3.63-7,3.34-11.04,2.4-19.74-4.61-39.41-2.45-59.03.77-1.34.22-3.36,2.58-3.29,3.83.2,3.4.86,6.97,2.27,10.04,1.76,3.84,2.84,7.13-1.64,10.24.25.34.49.68.74,1.02,4.55,0,9.11-.21,13.64.06,4.16.25,8.48-.15,9.98,5.88,1.03,4.16,13.83,5.07,16.75,1.68.21-.25.44-.52.56-.81,2.56-6.09,2.99-6.4,9.78-4.51,6.56,1.82,13.22,3.51,19.52,6.03,12.16,4.87,24.1,10.31,36.14,15.47,1.09.47,2.32.62,3.49.92.34-.48.68-.95,1.02-1.43-1.83-1.8-3.36-4.17-5.54-5.32-12.94-6.83-26.02-13.38-39.06-20-2.03-1.03-4.13-1.9-6.2-2.84.15-.56.3-1.11.45-1.67,8.2,2.08,16.85,3.13,24.49,6.49,9.94,4.37,19.34,10.15,28.46,16.12,7.64,5,14.46,11.24,21.81,16.72,4.66,3.48,9.61,6.56,14.43,9.82l1.26-1.53c-1.58-2.01-2.9-4.32-4.79-5.98-9.77-8.55-18.91-18.14-29.72-25.13-22.12-14.31-45.48-26.2-72.95-26.47-3.79-.04-7.56-2.08-11.34-3.19l.32-2.88c3.03-.16,6.19-.98,9.05-.37,12.99,2.77,25.96,5.67,38.8,9.04,25.51,6.68,45.36,22.74,64.05,40.24,11.78,11.03,22.7,22.97,33.78,34.72,1.94,2.05,2.75,5.16,4.09,7.78-.55.38-1.09.77-1.64,1.15-1.56-1.32-3.32-2.46-4.65-3.98-4.71-5.4-9.01-11.19-14.02-16.28-2.12-2.15-5.85-4.42-8.48-4.04-8.71,1.26-14.67-3.1-20.58-8.12-4.19-3.56-8.25-7.27-12.5-10.76-1.42-1.17-3.24-1.86-4.88-2.77-.37.37-.73.74-1.1,1.11,1.58,2.37,2.89,4.99,4.79,7.06,4.96,5.39,10.29,10.44,15.27,15.82,1.9,2.05,3.71,4.41,4.73,6.97,1.35,3.37,3.72,4.56,6.65,3.53,8.95-3.14,15.03,1.62,20.91,7.06,5.99,5.55,11.76,11.33,17.79,16.82,2.01,1.83,4.52,3.1,7.44,5.05,2.2-8.18-7.95-12.94-3.36-21.01,1.09.81,2.67,1.37,3.1,2.41,5.62,13.66,18.5,21.62,26.21,33.62,4.16,6.47,8.44,12.87,12.66,19.3-.67.53-1.33,1.06-2,1.59Zm-236.71-120.39l-.98-1.73c-1.49.56-3.05.98-4.46,1.71-12.51,6.47-25.08,12.86-37.4,19.69-1.55.86-1.76,4.14-2.59,6.31,1.8.21,3.95,1.15,5.33.49,5.08-2.43,10.14-5.06,14.78-8.22,8.59-5.85,16.89-12.14,25.31-18.24Zm44.22-37.02c0-.51,0-1.01,0-1.52h-11.4c0,.51,0,1.01,0,1.52h11.4Z"/>
      <path class="cls-1" d="m109.43,69.41c-35.56,6.4-62.13,28.25-88.02,53.15-2-4.4-3.5-7.7-5.4-11.87,7.11,1.5,12.22-.77,16.46-4.64,1.7-1.55,2.21-4.4,3.27-6.65-2.08-.17-4.15-.34-6.74-.55,1.44-3.83,5.08-5.45,8.85-5.84,5.14-.52,8.86-2.5,13.12-5.69,6.67-4.99,14.82-8.2,22.67-11.34,12.65-5.07,25.58-9.45,38.37-14.19,7.23-2.68,10.03-8.45,6.85-15.64-4.91,9.61-14.43,10.06-22.75,13.19-15.41,5.79-30.51,12.38-45.77,18.55-2.54,1.02-5.27,1.55-7.91,2.31l-.65-1.26c.88-.68,1.7-1.46,2.65-2.04,2.84-1.73,5.72-3.41,8.61-5.06,7.76-4.41,15.18-9.68,23.39-12.97,9.33-3.73,19.35-5.72,29.11-8.35,2.71-.73,5.17-1.09,4.71-5.01-.13-1.1,1.6-3.19,2.85-3.55,4.71-1.37,9.54-2.64,14.4-3.03,1.64-.13,3.41,2.57,5.28,3.72,1.96,1.21,4.11,2.11,6.18,3.15.45-1.92.67-3.94,1.41-5.74.98-2.38,1.86-5.89,3.7-6.63,5.12-2.05,10.7-2.93,16.11-4.26.28.51.56,1.03.84,1.54-1.23,1.37-2.64,2.62-3.65,4.14-4.19,6.32-8.57,12.55-12.17,19.2-1.16,2.14-.13,5.46-.1,8.24,3.98-.46,9.95.52,11.55-1.67,3.68-5.05,7.86-4.24,12.32-3.66,13.25,1.72,25.59-2.13,38.02-5.77-13.38-.56-26.92,2.78-41.63-1.81,2.72-2.06,4.3-3.26,6.4-4.85-4.26.19-8.04.36-12.26.56,4.05-6.85,18.53-12.17,24.68-9.43,1.11.5,2.13,2.32,2.3,3.64.55,4.35,2.47,5.83,7.45,5.63,4.68-.19,4.13-3.09,3.87-6.29-.12-1.46.5-4.1,1.22-4.26,1.5-.35,3.53.25,4.9,1.14,1.3.84,2.15,2.48,3.02,3.88,1.7,2.77,3.47,6.12,7.16,3.6.98-.67-.15-4.43-.39-7.91,35.15,6.49,70.61,14.36,102.82,32.63-.14.68-.28,1.36-.42,2.04-3.26-.49-6.68-.5-9.75-1.54-13.54-4.59-26.87-9.81-40.48-14.13-8.83-2.8-17.95-4.91-27.08-6.49-8.81-1.52-17.04,1.36-24.85,5.3,0,.46,0,.92,0,1.39,4.97,0,10-.46,14.91.08,22.12,2.43,43.43,7.93,63.89,16.88,8.02,3.51,16.53,5.87,24.77,8.91,1.19.44,2.07,1.74,3.1,2.64-1.14.74-2.34,2.18-3.41,2.09-2.76-.23-5.55-.9-8.18-1.84-4.38-1.56-8.53-3.83-12.96-5.14-5.35-1.58-8.31.14-10.16,5.24,4.8,2.09,11.9.42,14.23,8.12-17.4-3.62-34.08-7.92-51.03-10.39-17.09-2.49-34.42-3.74-51.69-4.48-17.19-.74-34.44-.16-52.87-.16,3.21-3.02,5.77-5.43,8.33-7.84-.07-.43-.15-.86-.22-1.29-3.08.35-6.16.64-9.23,1.05-3.42.46-6.49,1.51-8.38-3.34-1.36-3.49-11.96-2.43-13.91,1.05-.43.76-.57,2.07-.19,2.78.34.63,1.58,1.06,2.42,1.06,1.1,0,2.19-.52,4.12-1.04-.44,5.71,1.2,9.63,7.94,8-.35,5.13-3.77,6.33-7.12,6.88-3.83.62-7.21,1.19-8.42,5.64-.18.68-1.95,1.59-2.63,1.36-5.16-1.79-9.11,1-13,3.42-7.32,4.54-14.04,9.89-22.78,12.04-4.98,1.23-8.63,5.21-10.74,11.81,16.46-4.34,28.06-16.7,43.35-20.63.29.36.58.72.87,1.08-1.23,1.89-2.75,3.67-3.59,5.72-.77,1.87-.52,4.15-1.23,6.06-.83,2.24-1.81,4.67-3.44,6.29-2.36,2.34-5.36,4.02-8.09,5.99-.49-.56-.98-1.13-1.48-1.69,3.47-3.3,6.93-6.59,10.89-10.35-6.32-1.81-11.4-.57-15.92,2.37-4.59,2.98-8.83,6.51-13.15,9.88-3.34,2.6-6.29,3.62-9.09-.81-2.05-3.24-5.11-2.95-7.82-1-3.77,2.72-7.55,5.52-10.88,8.75-12.07,11.73-23.92,23.68-35.95,35.46-2.1,2.05-4.62,3.68-6.94,5.5-.43-.34-.85-.68-1.28-1.02,1.94-2.84,3.69-5.83,5.85-8.48,13.64-16.77,29.82-30.91,46.37-44.67,2.93-2.44,5.77-5.11,8.07-8.12,1.28-1.68,1.34-4.28,1.94-6.47-2.21.59-4.89.58-6.55,1.87-6.55,5.14-12.79,10.67-19.12,16.08-9.12,7.79-18.21,15.62-27.33,23.41-.85.72-1.88,1.24-3.74,1.24.81-1.41,1.36-3.07,2.46-4.19,9.21-9.36,18.48-18.66,27.85-27.86,1.24-1.22,3.1-1.95,4.8-2.51,2.57-.85,4.43-1.47,3.8-5.12-.23-1.34,2.34-3.78,4.16-4.73,4.4-2.31,9.21-3.72,11.19-9.18.42-1.17,2.99-1.75,4.67-2.24,13.82-4.03,26.35-10.66,38.08-19.03Zm53.41-3.07c-.01.7-.03,1.4-.04,2.1,1.67.45,3.31,1.15,5.01,1.31,4.3.39,8.63.57,12.95.78,23.09,1.1,46.21,1.76,69.25,3.52,8.07.62,15.92,3.98,23.89,6.03,2.38.61,5,1.76,7.16,1.23,1.52-.37,3.81-3.8,3.37-4.73-.99-2.1-3.22-4.49-5.38-5.03-12.86-3.19-25.74-7.59-38.8-8.35-19.88-1.16-39.92.16-59.88.78-5.86.18-11.69,1.55-17.53,2.38Zm-40.87,11.54c-10.03-2.17-45.95,15.4-50.29,25.07,18.93-5.78,35.29-13.95,50.29-25.07Z"/>
      <path class="cls-1" d="m218.48,108.34c-.56,6.69-3.23,8.74-9.89,8.81-8.48.08-16.99-.08-25.44.52-5.97.43-12.02,1.35-13.01,9.52-.38,3.17-3.53,3.39-5.93,1.67-2.55-1.82-4.78-4.1-7.1-6.24-3.84-3.54-6.36-3.62-9.35-.29-3.26,3.64-1.11,5.95,1.91,8.1.8.57,1.54,1.22,2.94,2.34-1.8,1.13-2.88,2.2-4.15,2.53-22.49,5.82-40.8,19.23-59.03,32.68-15.72,11.59-30.44,24.36-43.01,39.44-6.48,7.78-10.44,18.29-8.52,26.23,3.05-4.2,6.1-8.39,9.16-12.59.49.26.98.52,1.47.78-2.99,6.5-5.98,13-9.09,19.75-3.45-2.37-5.74-5.17-7.88-5.06-1.93.11-3.53,3.61-5.59,5.2-1.12.86-2.92.84-4.41,1.22-.24-1.4-1.11-3.11-.61-4.16,3.6-7.4,6.36-15.61,11.51-21.79,10.75-12.91,22.81-24.73,34.36-36.97,1.83-1.94,4-3.58,5.66-5.64,6.05-7.5,14.44-11.71,22.46-16.53,10.11-6.09,19.84-12.8,29.96-18.88,3.35-2.01,7.39-2.83,11.07-4.32,1.51-.61,3.28-1.22,4.21-2.4.88-1.12,1.51-3.31.97-4.41-.47-.97-2.71-1.5-4.15-1.46-1.77.05-3.63.66-5.25,1.45-28.03,13.51-54.89,29-76.69,51.56-16.48,17.05-30.45,36.19-41.15,57.49-1.54,3.06-2.18,6.58-3.21,9.9-.19.63-.03,1.5-.41,1.92-1.83,2.04-3.79,3.96-5.71,5.92-.5-2.59-2.01-5.49-1.34-7.73,3.85-12.9,10.7-24.25,18.73-35.02,2.69-3.6,3.68-8.42,6.04-12.32,2.16-3.57,5.09-6.7,7.75-9.95,1.52-1.86,3.2-3.59,4.81-5.38-.41-.58-.83-1.15-1.24-1.73-1.85.68-4.05.93-5.5,2.1-7.23,5.88-14.63,11.68-15.76,22.08-.13,1.23-2.22,2.85-3.66,3.21-3.8.95-7.46,1.46-8.6,6.26-.29,1.2-2.56,1.94-3.91,2.88-.42-.32-.84-.63-1.27-.95.92-2.15,1.42-4.63,2.82-6.4,8.16-10.3,16.1-20.84,24.96-30.51,11.24-12.28,23.32-23.8,34.98-35.71,1.74-1.78,3.45-3.69,4.66-5.84.66-1.17.26-2.94.34-4.44-1.45-.05-3.19-.6-4.24.02-.7.41-.53,2.5-.51,3.83.02.77.52,1.54.56,1.62-2.8,1.39-5.85,2.14-7.87,4.02-9.99,9.29-19.59,19-29.55,28.33-5.81,5.45-11.94,10.58-18.11,15.63-2.67,2.19-5.68,2.53-8.69-.93,3.63-2.83,7.34-5.3,10.55-8.3,12.54-11.72,24.86-23.67,37.39-35.4,4.13-3.86,8.53-7.45,13.01-10.9,2.86-2.21,5.78-2.99,9.67-1.02,1.92.98,5.71-.31,7.96-1.7,3.69-2.28,6.82-5.48,10.43-8.49,3.1,4.22.54,6.58-1.35,8.5-9.71,9.83-19.55,19.54-29.5,29.12-4.31,4.16-9.15,7.77-13.45,11.94-1.84,1.78-2.92,4.35-4.34,6.57.38.42.77.84,1.15,1.26,1.47-.46,3.11-.64,4.37-1.42,14.71-9.1,28.35-19.82,38.24-33.94,4.52-6.46,8.98-8.45,16.11-9.83,8.49-1.64,16.65-5.49,24.59-9.16,2.78-1.29,4.38-5,6.75-7.38,1.46-1.46,3.19-3.06,5.08-3.63,13.05-3.86,26.19-7.42,39.27-11.18,3.82-1.1,7.56-2.51,11.33-3.78-.14-.66-.28-1.32-.41-1.98-7.19.64-14.38,1.27-22.36,1.98,1.82-5.22,5.44-5.24,8.45-5.04,16.75,1.13,33.69,1.33,50.16,4.18,22.39,3.87,44.76,8.74,66.49,15.32,12.82,3.88,24.45,11.79,36.5,18.11,7.8,4.1,15.3,8.79,23.14,12.8,1.85.95,4.55.26,6.86.32-.97-2.32-1.29-5.7-3.03-6.77-9.47-5.82-19.03-11.63-29.05-16.4-31.81-15.14-65.12-26-99.48-33.72-1.9-.43-3.72-1.21-5.58-1.83.08-.52.16-1.04.24-1.56,7.19.9,14.44,1.44,21.55,2.78,16.18,3.05,32.29,6.46,48.4,9.8,3.52.73,7.33,1.09,8.6,5.63.27.96,1.87,1.8,3.03,2.23,7.75,2.93,15.57,5.68,23.32,8.61,6.1,2.31,8.68,2.46,12.68-.13-7.81-9.98-21.49-10.98-30.18-19.73,8.56-1.61,38.1,13.97,41.17,22.05-1.81-.1-3.42-.6-4.73-.16-2.13.7-4.89,1.51-5.89,3.18-1.71,2.87,1.74,2.88,3.28,4.12,6.29,5.06,12.73,10.03,18.36,15.77,3.63,3.7.15,7.41-2.33,10.54-2.23,2.81-4.95,4.55-8.66,2.68-2.22-1.12-4.5-2.19-6.53-3.6-32.23-22.53-68.35-35.48-106.6-43.01-9.94-1.96-20.09-2.88-30.14-4.33-1.8-.26-3.68-.53-5.34-1.22-3.69-1.53-6.85-2.65-8.29,2.83-.28,1.06-2.62,1.73-4.11,2.29-1.54.58-3.63.33-4.71,1.3-1.25,1.13-2.03,3.15-2.21,4.87-.06.56,2.48,2.12,3.68,1.97,7.75-.98,15.44-2.39,23.17-3.49,3.74-.53,7.53-.67,11.78-1.03Zm-44.89,1.99c-5.64-1.68-11.1-1.51-16.41.47-1.25.47-3.06,2.7-2.79,3.32.62,1.41,2.21,2.91,3.69,3.33,4.2,1.19,12.54-2.75,15.51-7.12Z"/>
      <path class="cls-1" d="m115.95,377.56c-7.92,7.2-10.26,6.55-12.64-3.06-.91-3.66-.63-7.61-.9-11.43.76-.25,1.52-.5,2.28-.76.94,1.58,2.07,3.09,2.75,4.78.55,1.35.12,3.23.91,4.31,1.03,1.41,2.78,2.97,4.33,3.09.95.08,2.98-2.39,3.02-3.76.32-9.93-2-19.18-8.78-26.77-1.33-1.49-3.63-2.62-5.62-2.91-4.12-.6-5.09-3.16-4.3-6.39,1.72-7,2.38-14.49,9.03-19.41,1.08-.8,1.03-5.51.45-5.74-2.32-.92-5.9-1.91-7.44-.76-2.43,1.81-4.38,5.13-5.14,8.17-1.53,6.09-2.12,12.42-3.1,18.64-.28,1.8-.16,3.79-.93,5.34-.77,1.52-2.44,2.59-3.71,3.85-.75-1.71-2.4-3.6-2.09-5.09,2.28-11.23,4.86-22.4,7.54-33.55.74-3.07,2.85-4.52,6.33-4.29,7.45.48,6.63,0,9.48-7.25,5.58-14.2,12.06-28.05,18.51-41.89.77-1.65,3.69-2.29,5.62-3.4-.27,2.39.35,5.59-.96,7.02-5.1,5.57-8.75,11.84-10.34,19.09-1.61,7.37-2.41,14.9-3.72,22.34-.2,1.15-1.04,2.36-1.91,3.19-1.78,1.69-3.8,3.14-6.25,5.12,6.23,3.06,6.55,8.31,6.44,13.69-.56,26.44,5.32,51.23,19.44,73.76,10.79,17.22,24.67,31.18,44.36,37.77,6.99,2.34,14.61,2.96,22.01,3.81,1.61.18,3.8-1.77,5.19-3.25,5.91-6.25,11.58-12.72,17.44-19.02.68-.74,2-.88,4.43-1.87-1.24,3.38-1.65,5.86-2.93,7.75-2.89,4.27-6.37,8.13-9.27,12.38-1.59,2.33-2.67,5.07-3.62,7.76-1.06,2.99-8.7,7.4-12.61,6.32-27.8-7.71-53.85-18.09-68.19-45.91-2.44-4.73-5.23-9.3-8.21-13.71-1.9-2.81-4.45-5.19-6.88-7.95Zm-9.62-54.75c-.54.04-1.09.07-1.63.11v11.27c.54,0,1.09,0,1.63,0v-11.38Z"/>
      <path class="cls-1" d="m348.65,272.02c.83,2.04,1.39,4.25,2.55,6.08,7.09,11.27,14.1,22.61,21.64,33.57,1.99,2.9,5.84,4.48,8.68,6.86,1.48,1.24,3.07,2.69,3.82,4.39,2.07,4.71,3.5,9.69,5.58,14.39,2.98,6.73,6.3,13.31,9.42,19.83-2.57.84-4.81.31-6.94-3.98-3.24-6.53-5.73-13.42-8.6-20.14-1.19-2.78-2.55-5.49-3.83-8.23-.62.17-1.24.34-1.86.51.4,3.48.51,7.02,1.24,10.42,4.56,21.13,9.53,42.17,13.76,63.37,1.63,8.17,1.67,16.66,2.44,25-.68.15-1.36.3-2.04.45-.88-2.32-2.11-4.57-2.59-6.97-2.98-15.17-5.09-30.54-8.79-45.52-10.23-41.49-26.04-80.35-55.24-112.65-5.34-5.91-9.86-12.56-14.65-18.95-1.15-1.53-1.84-3.4-2.24-5.54,14.07,8.34,22.1,23.41,36.12,32.51,2.28-7.89-9.36-9.51-6.58-17.48,6.1,2.39,9.69,6.61,11.1,12.57.71,3.02.74,5.7,5.14,5.82,1.76.05,3.78,2.59,5.1,4.41,3.32,4.57,6.07,9.57,9.51,14.04,3.7,4.8,8.06,9.09,11.88,13.8,2.92,3.61,5.44,7.54,8.17,11.31,2.41,3.33,4.91,6.51,10.23,4.91-3.49,10.47,5.82,18.08,5.88,27.6-.5.33-1,.67-1.5,1-1.75-1.88-3.95-3.51-5.17-5.68-13.3-23.85-30.4-44.89-47.98-65.59-.91-1.07-2.14-1.85-3.22-2.77-.35.22-.69.44-1.04.66Z"/>
      <path class="cls-1" d="m89.74,408.68c3.57,7.77,7.05,15.6,10.74,23.31,3.72,7.76,7.59,15.45,11.51,23.1,2.87,5.6,5.63,11.3,8.99,16.61,3.88,6.14,8.58,11.13,16.95,11.31,3.52.08,7.14,2.29,10.43,4.05,5.26,2.8,10.18,6.24,15.45,9.02,3.12,1.65,6.06,1.6,7.36-2.86.36-1.22,2.26-2.64,3.6-2.81,5.93-.75,11.38.61,17.32,5.34-2.49.39-3.64.72-4.79.72-1.82,0-3.83-.75-5.41-.19-1.72.61-3.04,2.35-4.53,3.59,1.45,1.33,2.76,3.59,4.38,3.84,6.9,1.05,13.88,1.49,20.83,2.18,1.24.12,2.47.41,5,.84-3.72,2.08-6.35,3.54-9.62,5.37,7.67,3.68,17.15-.86,23.02,6.09-.05.57-.09,1.13-.14,1.7-2.84.2-5.74.87-8.51.53-7.76-.96-15.16-2.43-21.28-8.44-3.64-3.58-9.2-2.65-14.9-1.41,2.38,2.67,4.31,4.83,6.74,7.57-7.52,2.16-13.75.54-19.08-2.64-10.12-6.03-19.7-12.95-29.55-19.43-2.67-1.76-5.51-3.27-9.44-5.59,0,6.65.11,11.73-.07,16.79-.05,1.52-.92,3.01-1.42,4.51-1.47-.63-3.12-1.01-4.36-1.94-5-3.74-4.8-4.36-1.88-9.34.88-1.49.51-4.75-.6-6.19-3.33-4.33-7.5-8.01-10.94-12.27-1.81-2.25-2.76-5.19-4.15-7.79-.94-1.75-1.86-3.54-3-5.16-9.21-13.12-17.31-26.85-22.98-41.91-.54-1.43-.51-3.21-.2-4.72.09-.45,2.11-.87,3.11-.67,1.02.21,2.11,1.04,2.74,1.91,1.06,1.46,2.04,3.09,2.61,4.79,7.18,21.54,20.78,39.32,33.74,57.45.89,1.25,2.79,1.77,4.23,2.63.26-1.78,1.27-3.9.64-5.27-2.33-5.13-4.91-10.21-7.93-14.96-9.48-14.9-18.8-29.88-24.64-46.67-1.35-3.89-1.86-8.07-2.76-12.11.93-.3,1.86-.6,2.79-.89Zm50.09,80.02c-.33.51-.65,1.01-.98,1.52,4.39,6.72,9.5,12.75,16.77,16.69.69.38,1.7.7,2.38.49,3.64-1.11,5.57,1.07,7.42,3.56,1.66,2.24,3.48,3.76,6.03,1.08,2.24-2.35,2.62-5.02-.36-6.67-10.33-5.72-20.83-11.13-31.27-16.67Z"/>
      <path class="cls-1" d="m232.38,548.47c1.13,1.55,2.83,2.95,3.28,4.67,1,3.82-4.49,13.66-8.22,14.36-1.75.33-4.96-.91-5.66-2.34-2.89-5.9-7.83-6.62-13.39-6.55-4.07.05-8.14,0-13.21,0,3.32-1.8,5.84-3.16,8.35-4.53,0-.53.02-1.05.03-1.58-3.88-.83-7.73-2.03-11.65-2.29-1.3-.09-3.57,1.97-4,3.46-1.24,4.22-4.01,5.37-7.88,5.36-6.53-.01-11.91-1.84-15.72-7.77-1.92-2.99-4.74-5.74-7.77-7.59-9.06-5.56-18.37-10.71-27.7-15.8-2.22-1.21-4.92-1.55-7.4-2.29-.34.43-.69.86-1.03,1.3,1.25,1.44,2.25,3.29,3.8,4.26,7.17,4.53,14.61,8.65,21.72,13.27,4.15,2.7,7.86,6.06,12.38,9.6-4.71,2.94-6.77.64-9.26-.92-3.4-2.13-7.04-3.92-10.72-5.53-4.06-1.78-8.94-2.36-12.33-4.94-12.7-9.69-24.99-19.93-37.31-30.13-2.35-1.95-4.1-4.61-5.65-7.51,12.28,3.98,19.48,16.17,32.14,19.94,1.52-4.23-1.43-5.86-3.49-7.74-7.84-7.18-16.1-13.95-23.51-21.55-3.76-3.85-6.06-9.14-9.02-13.77l1.61-1.61c1.78.84,3.82,1.36,5.27,2.58,2.66,2.24,5.27,4.67,7.4,7.41,8.4,10.81,18.72,19.36,30.3,26.5,8.5,5.24,17.18,10.23,25.44,15.83,8.46,5.73,18.17,6,27.65,7.4,12.9,1.91,25.58,4.49,36.96,11.26,2.41,1.43,4.78,3.09,6.76,5.05,2.55,2.52,4.97,4.68,8.63,2.33,3.67-2.35,3.75-5.61,1.72-9.25.51-.29,1.01-.58,1.52-.87Zm-63.36-4.21c2.99,5.8,10.31,9.97,14.56,8.3-2.77-5.39-9.37-9.15-14.56-8.3Z"/>
      <path class="cls-1" d="m267.86,143.47c1.64.53,3.4.84,4.91,1.63,13.86,7.23,27.71,14.49,41.49,21.89,3.48,1.87,7.25,3.93,4.66,9.44.33.27.66.53.99.8,2.57-1.08,5.07-2.41,7.73-3.16,2.5-.7,5.46-1.65,7.72-.93,3.89,1.24,7.79,3.2,10.99,5.73,11.73,9.27,23.15,18.91,34.74,28.35.95.77,2.46,1.72,3.41,1.47,4.72-1.26,5.02,1.86,5.19,4.98.17,3.08.04,6.19.04,9.79-20.43-15.39-35.55-36.02-57.58-48.4-.34-.19-.93.07-2.57.25,1.72,2.7,2.79,5.3,4.64,7.13,8.48,8.39,17.22,16.51,25.78,24.82,8.37,8.12,16.56,16.42,24.98,24.48,2.48,2.37,5.58,4.1,8.26,6.29,1.06.87,2.28,2.11,2.48,3.34.72,4.37,1.04,8.81.84,13.62-36.51-44.72-80.79-80.03-129.75-109.86.35-.54.71-1.08,1.06-1.63Z"/>
      <path class="cls-1" d="m187.44,329.06c-8.38,2.58-10.49.95-10.81-6.57-.34-8.02,3.27-14.5,7.89-20.51,2.48-3.23,5.11-2.57,7.85,1.58,5.24,7.93,8.35,16.7,9.12,26.11,1.1,13.48,1.15,26.98-2.96,40.07-1.28,4.07-2.47,8.77-9.11,9.12,2.35-8.67-2.75-13.49-8.26-18.04-1.26-1.04-2.75-2.17-4.27-2.42-1.61-.27-4-.08-4.9.93-.86.97-.84,3.56-.14,4.88.95,1.79,2.82,3.15,4.45,4.5,1.01.83,2.39,1.19,3.47,1.94,2.44,1.7,4.92,4,2.71,6.94-2.28,3.03-5.07.49-6.75-1.2-3.14-3.15-6.01-6.65-8.5-10.34-1.94-2.89-1.49-5.7.33-9.19,1.94-3.71,2.23-8.53,2.34-12.89.18-6.95.6-7.81,7.5-7.93,4.46-.08,7.84-1.54,10.03-6.98Zm-6.06-2.52c10.12-1.05,10.99-.17,10.27,10.28-.13,1.82-.36,3.66-.78,5.43-1.11,4.74-3.55,5.65-7.51,2.73-2.41-1.77-4.55-3.92-7.01-5.62-.92-.64-2.8-1.05-3.48-.55-.74.55-.95,2.36-.75,3.51,1.27,7.66,6.71,11.63,15.52,11.55,7.11-.07,9.26-1.95,8.65-8.93-.86-9.93-2.12-19.84-3.55-29.71-.43-2.92-2.04-5.67-3.16-8.65-5.7,3.46-9.51,13.38-8.19,19.97Z"/>
      <path class="cls-1" d="m287.51,427.17c-5.2,18.78-6.19,38.64-14.02,57.53-3.49-3.67-6.08-3.76-8.72.14-.89,1.31-3.53,2.27-5.22,2.07-6.59-.78-11.6,2.07-16.3,6.05-1.65,1.4-3.33,2.77-5.05,4.09-3.01,2.31-5.89,3.02-8.55-.62-1.4-1.92-3.12-3.31-5.19-.72-1.7,2.14-2.62,3.92.54,6.09,3.93,2.7,4.79,9.92,1.94,16.91-.52-6.46-4.16-8.28-8.47-10.51-2.23-1.16-2.62-6.93-2.83-10.67-.2-3.74,2.69-5.34,6.32-5.59,9.4-.65,17.48-4.41,23.54-11.55,2.56-3.01,4.37-6.96,5.53-10.79,1.63-5.38,3.51-6.99,9.01-5.05,4.81,1.7,9.43,3.93,14.3,6-.96-16.38,4.21-30.44,13.15-43.39Zm-31.35,55.25c4.61-.64,9.02-4.45,9.39-8.51.11-1.28-.55-2.86-1.38-3.88-.42-.51-2.19-.42-3.04,0-2.96,1.49-5.73,8.74-4.96,12.39Z"/>
      <path class="cls-1" d="m172.73,26.95c12.29-5.5,83.83-6.88,91.75-2.76.02.33.19.74.05.97-4.45,7.38-1.28,7.67,4.65,9.23,7.53,1.99,15.33,2.95,23.03,4.23,3.54.59,7.31,4.29,6.78,7.74-.2,1.27-2.48,3.18-3.73,3.13-2.56-.11-5.24-1.01-7.55-2.21-10.13-5.24-20.47-9.5-32.13-9.93-3.57-.13-7.18-1-9.11-5.05-.61-1.27-3.15-2.64-4.48-2.37-9.25,1.88-17.98-1.32-26.95-2.08-9.75-.83-19.62-.15-29.44-.25-4.29-.05-8.57-.42-12.86-.64Z"/>
      <path class="cls-1" d="m147.13,145.09c-5.44,3.27-10.7,6.87-16.34,9.75-20.5,10.46-38.47,24.27-51.87,42.89-8.6,11.94-15.15,25.42-22.02,38.52-6.47,12.33-12.14,25.08-18.17,37.65-.45-.12-.89-.25-1.34-.37,1.33-5.97,2.31-12.05,4.05-17.9,2.72-9.11,6.15-17.94,12.98-25.01,1.21-1.25,1.85-3.11,2.56-4.78,6.83-16.17,13.77-32.59,27.76-43.87,12.78-10.31,26.74-19.18,40.37-28.4,4.66-3.15,9.86-5.54,14.91-8.09,1.94-.98,4.16-1.41,6.26-2.09.28.57.57,1.14.85,1.71Z"/>
      <path class="cls-1" d="m375.57,189.36c-24.27-18.21-50.38-33.85-74.01-52.97.33-.56.65-1.11.98-1.67,4.49,2.27,9.14,4.27,13.44,6.86,12.38,7.46,24.58,15.23,36.95,22.72,3.1,1.88,6.52,3.3,9.92,4.61,1.15.44,2.68-.12,4.03-.22-.28-1.38-.12-3.15-.93-4.05-2.3-2.55-4.99-4.74-7.52-7.08.06-.55.12-1.09.18-1.64,2.69-.61,5.59-2.07,8.01-1.5,1.4.33,2.32,3.85,2.95,6.08,2.07,7.33,3.9,14.73,5.83,22.1.49,1.86.99,3.71,1.48,5.57l-1.31,1.18Z"/>
      <path class="cls-1" d="m82.73,43.19c4.34-2.2,8.67-4.41,13.01-6.6,4-2.02,7.18-4.47,4.85-9.95,16.56.91,31.73-3.73,46.68-8.98,4.54-1.6,8.45-4.95,12.75-7.32,1.29-.71,3.42-1.58,4.28-1.02,1.83,1.18,3.38,3.1,4.36,5.06.28.56-1.55,2.86-2.82,3.39-6.43,2.68-12.92,5.23-19.52,7.46-18.06,6.11-36.18,12.08-54.3,18.01-2.77.91-5.69,1.34-8.54,1.99-.25-.68-.5-1.36-.75-2.05Z"/>
      <path class="cls-1" d="m74.07,300.02c.85,7.31,2.23,14.61,2.46,21.95.82,25.73,3.93,51.03,12.42,75.48.83,2.39,2.37,5.47-1.78,6.4-3.27.73-5.16-.6-5.71-4.31-1.18-7.88-2.06-15.92-4.41-23.48-6.57-21.16-6.42-42.85-6.25-64.59.01-1.66.09-3.33.3-4.98.27-2.1.7-4.18,1.07-6.27.63-.06,1.26-.13,1.89-.19Z"/>
      <path class="cls-1" d="m66.94,258.34c.19-1.98-.28-4.4.69-5.87,3.41-5.2,7.1-10.26,11.17-14.96,1.1-1.27,4.31-2.03,5.84-1.37,4.16,1.79,6.33-.23,8.35-3.12,2.2-3.13,4.1-6.49,6.41-9.53,1.68-2.22,3.44-6.01,6.77-3.31.95.77-.26,5.48-1.64,7.63-4.1,6.4-9.32,12.12-13.12,18.68-6.91,11.92-10.47,25.09-12.69,38.65-.54,3.31-1.97,6.47-3.6,9.58-2.54-7.17-2.62-14.41-.66-21.37,1.83-6.51,4.75-12.73,7.26-19.04,1.35-3.39,3.04-6.66,4.2-10.11.37-1.1-.09-3.37-.84-3.75-.99-.49-3.22-.11-3.91.73-2.43,2.91-4.46,6.16-6.57,9.33-1.87,2.82-3.65,5.7-5.46,8.56l-2.2-.73Z"/>
      <path class="cls-1" d="m323.13,427.25c-7.13,7.04-2.93,17.66-6.88,25.7-.46.02-.92.05-1.38.07-.66-1.72-2.06-3.53-1.84-5.13,1.03-7.49,2.29-14.97,3.99-22.33.4-1.71,2.6-3.6,4.39-4.27,3.75-1.39,4.89-4.07,5.44-7.56.46-2.98,1.22-5.92,1.84-8.87.62,0,1.24-.01,1.86-.02.42,1.91,1.1,3.8,1.23,5.72,1.2,17.52-.54,34.85-3.46,52.12-.72,4.25-1,8.58-1.49,12.87-.13,1.15.09,2.58-.52,3.39-1.33,1.78-3.08,3.25-4.66,4.85-.57-2.07-1.85-4.24-1.58-6.19,1.54-11,3.75-21.92,5.12-32.94.7-5.62.12-11.39.12-17.09l-2.18-.32Z"/>
      <path class="cls-1" d="m237.01,0c2.12,3.45,4.5,6.78,6.18,10.43.42.91-1.13,3.81-2.26,4.14-2.97.87-6.21.98-9.35,1.12-15.78.7-31.56,1.31-47.34,1.97-.83.03-1.66.15-2.47.3-7.81,1.43-11.47-2.72-9.2-10.43,1.19-4.03,4.48-2.87,7.05-2.53,8.89,1.19,17.7,2.98,26.61,3.94,7.07.76,14.25,1.03,21.36.81,8.37-.25,9.23-1.55,8.22-9.08.4-.22.79-.45,1.19-.67Z"/>
      <path class="cls-1" d="m287.15,470.16c4.21,15.92-11.93,45.44-26.85,49.72-1.27-6.14-4.67-4.23-8.38-2.19-2.65,1.45-5.57,2.4-8.36,3.58-.36-.45-.71-.89-1.07-1.34,1.28-1.73,2.36-3.66,3.88-5.14,2.97-2.9,6.28-5.46,9.26-8.34,1.9-1.84,3.63-3.9,5.17-6.06,5.45-7.64,5.5-7.31,14.95-9.68,2.43-.61,4.68-3.95,6.01-6.54,2.15-4.21,3.47-8.85,5.4-14Zm-10.9,27.58c-9.13,4.35-13.25,10.28-11.41,16.07,3.71-5.23,7.17-10.09,11.41-16.07Z"/>
      <path class="cls-1" d="m313.51,525.08c-6.66,9.21-12.94,18.4-23.69,23.53-8.68,4.14-16.76,9.53-25.21,14.17-6.34,3.48-12.3,8-20.25,7.47-1.38-.09-2.84,1.99-4.35,2.94-2.35,1.47-4.77,2.82-7.72,3.35,2.86-6.23,8.34-9.11,14.04-11.46,17.99-7.44,34.14-17.54,47.95-31.42,5.09-5.11,11.78-7.74,19.23-8.58Z"/>
      <path class="cls-1" d="m202.24,86.71c-2.87-.17-5.77-.17-8.62-.56-10.86-1.47-21.56-1.22-32.04,2.31-3.95,1.33-6.51,3.53-8.31,7.74-1.31,3.07-4.97,5.84-8.22,7.21-5.14,2.16-10.77,3.25-16.28,4.38-4.35.89-7.1,2.36-6.17,7.58.24,1.33-.91,3.71-2.07,4.28-1.31.65-3.36-.19-5.09-.38.23-1.7.07-3.58.76-5.07,4.26-9.2,15.49-15.23,26.16-14.62,1.44.08,3.33-1.18,4.35-2.38,1.12-1.32,1.83-3.24,2.08-4.99.91-6.35,4.22-9.14,10.79-9.32,10.63-.29,21.24-1.6,31.87-1.89,3.96-.11,8.65-.2,11.31,3.81-.17.63-.35,1.25-.52,1.88Z"/>
      <path class="cls-1" d="m69.64,295.12c-9.71,14.57-7.28,29.64-6.23,44.63-4.54-4.68-6.04-10.34-6.67-16.27-.77-7.28-1.19-14.6-2.02-21.87-.8-7-2.25-13.81-9.11-17.87.78-.63.99-.93,1.25-.99,10.29-2.38,10.16-2.39,11.16-13.16.13-1.4,2.46-2.6,3.77-3.89.81,1.51,2.55,3.23,2.26,4.48-1.51,6.46-3.71,12.76-5.35,19.19-2.05,8.1-1.45,8.6,6.41,6.57.91-.24,1.86-.34,4.52-.82Z"/>
      <path class="cls-1" d="m152.66,356.38c-6.1,2.87-8.41,1.76-8.82-3.99-.06-.79-.16-1.91-.68-2.29-5.16-3.79-5.12-9.59-5.27-14.9-.37-13.45-.28-26.93-.04-40.38.05-2.8,1.52-5.58,2.34-8.36.79.07,1.57.14,2.36.21.66,3.06,1.77,6.1,1.88,9.18.24,6.63.15,13.3-.12,19.93-.54,13.25-.25,26.28,7.47,37.89.51.77.6,1.82.88,2.72Z"/>
      <path class="cls-1" d="m105.2,495.19c-1.19-.98-2.68-1.76-3.54-2.98-13.54-19.13-27.02-38.29-40.43-57.51-1.02-1.46-1.64-3.31-1.99-5.07-.21-1.07.44-2.32.71-3.49,1.2.33,2.85.27,3.51,1.05,2.15,2.51,4.47,5.1,5.76,8.08,6.51,14.95,16.2,27.78,26.01,40.6,3.72,4.86,6.63,10.35,9.82,15.61.54.9.66,2.05.97,3.09-.27.2-.55.41-.82.61Z"/>
      <path class="cls-1" d="m98.02,397.91c12.99,20.96,18.42,46.31,37.28,63.84-.4.5-.8,1-1.2,1.5-2.06-.87-4.59-1.25-6.1-2.7-11.97-11.5-20.8-24.92-24.58-41.37-.76-3.33-2.44-6.44-3.6-9.69-1.28-3.57-2.46-7.17-3.68-10.76.63-.27,1.25-.55,1.88-.82Z"/>
      <path class="cls-1" d="m122.69,557.81c.59-4.68-2.8-6.09-6.13-8.21-7.65-4.88-14.92-10.37-22.21-15.8-1.29-.96-1.96-2.77-2.91-4.19.39-.49.77-.98,1.16-1.47,5.08,2.86,10.23,5.6,15.22,8.61,10.37,6.27,20.65,12.69,30.96,19.04,1.27.78,2.87,1.3,3.74,2.4,1.07,1.34,1.54,3.16,2.27,4.77-1.84.1-3.68.27-5.51.24-.59,0-1.23-.49-1.76-.87q-6.88-4.87-14.82-4.53Z"/>
      <path class="cls-1" d="m309.28,549.73c-1.66,2-2.88,4.58-4.9,5.72-9.95,5.61-20.14,10.78-30.18,16.24-4.52,2.46-8.79,5.4-13.34,7.79-1.31.69-3.22.23-4.85.29.71-1.67.98-3.85,2.21-4.9,2.5-2.13,5.38-3.95,8.36-5.38,12.49-6.03,24.62-12.5,34.27-22.85,1.27-1.36,3.76-2.19,5.64-2.1.87.04,1.61,2.87,2.79,5.19Z"/>
      <path class="cls-1" d="m313.45,461.74c1.53,9.69-.65,18.96-3.9,28.04-1.51,4.21-3.96,8.15-5.02,12.45-.56,2.26.16,5.71,1.65,7.45,4.34,5.08,4.33,6.53-1.76,9.89-5.45-4.8-6.71-16.56-3.39-23.5,2.3-4.82,3.47-10.21,4.81-15.43,1.2-4.65,1.74-9.46,2.97-14.1.51-1.92,2.04-3.58,3.11-5.35.51.18,1.02.37,1.53.55Z"/>
      <path class="cls-1" d="m232.87,526.98c-7.9,2.65-15.72,5.56-23.72,7.83-4.41,1.25-9.11,1.69-13.72,1.95-1.74.1-3.94-.93-5.27-2.16-2.72-2.53-1.97-5.59,1.64-6.06,13.41-1.72,26.87-3.06,40.31-4.54.25.99.5,1.98.76,2.98Z"/>
      <path class="cls-1" d="m53.77,400.54c2.7,3.07,4.5,5.13,7.36,8.39,2.16-6.14,3.97-11.27,6.32-17.92,3.61,7.76,6.87,14.44,9.76,21.28.44,1.03-.81,2.78-1.28,4.2-1.58-.57-3.58-.73-4.61-1.81-1-1.06-.74-3.21-1.5-4.62-.81-1.49-2.17-2.68-3.3-3.99-1.2,1.63-2.41,3.25-3.6,4.89-.08.11-.04.34.02.49,1.36,3.55,1.52,6.97-3.16,7.57-5.24.67-5.62-3.65-5.94-7.29-.29-3.24-.06-6.52-.06-11.16Z"/>
      <path class="cls-1" d="m261.04,391.91c-.94,5-1.88,8.89-2.36,12.83-.46,3.76-.21,7.61-.76,11.35-.34,2.28-1.08,4.91-2.58,6.5-2.08,2.21-4.63,1.81-5.64-1.54-.52-1.72-1.13-3.66-.81-5.33,1.6-8.25,3.33-16.48,5.45-24.6.34-1.32,2.84-2.09,4.35-3.11.93,1.53,1.85,3.05,2.37,3.91Z"/>
      <path class="cls-1" d="m283.49,138.58c8.31,3.96,16.73,7.71,24.89,11.95,6.34,3.29,12.46,7.05,18.44,10.96,1.61,1.05,2.36,3.43,3.51,5.19-2.16-.05-4.72.63-6.4-.28-8.03-4.37-15.93-9.01-23.68-13.87-6.03-3.77-11.77-8-17.64-12.02.29-.64.59-1.29.88-1.93Z"/>
      <path class="cls-1" d="m340.87,545.74c3.46-5.98,7.95-9.44,14.23-10.87,1.73-.39,3.82-2.03,4.52-3.63,4.34-9.96,12.54-15.8,21.68-21.98-2.25,9.52-30.84,35.14-40.43,36.47Z"/>
      <path class="cls-1" d="m64.22,349.73c5.63,30.06,5.73,32.7.65,38.77-1.53-3.35-3.58-6.02-3.9-8.88-1.08-9.66.04-19.2,3.25-29.89Z"/>
      <path class="cls-1" d="m46.26,428.74c-7.99-9.1-11.87-28-6.95-32.39,5.02,4.06,9.47,24.27,6.95,32.39Z"/>
      <path class="cls-1" d="m109.4,14.77c11.61-3.68,23.06-8.08,35.51-8.15,1.62,0,3.25,1.37,4.87,2.1-1.47,1.06-2.85,2.86-4.44,3.07-11.89,1.58-23.83,2.84-35.75,4.21l-.2-1.22Z"/>
      <path class="cls-1" d="m25.58,281.59c-1.16,13.04-2.31,26.08-3.47,39.12-5.26-8.55-3.55-33.36,1.63-39.43.61.1,1.23.2,1.84.31Z"/>
      <path class="cls-1" d="m154.6,523.72c8.85-3.1,23.16,2.31,26.38,9.71-5.97,2.32-22.94-3.74-26.38-9.71Z"/>
      <path class="cls-1" d="m256.42,493.47c2.33,6.59-11.04,17.92-21.32,18.08,1.39-5.14,14.43-16.2,21.32-18.08Z"/>
      <path class="cls-1" d="m143.4,468.27c8.18,5.07,15.45,11.19,21.35,18.9-.31.5-.63,1.01-.94,1.51-2.48-1.47-5.19-2.65-7.38-4.46-3.64-2.99-6.38-7.42-12.26-6.12-.54.12-2.02-1.92-2.27-3.13-.39-1.87-.1-3.88-.1-5.83.53-.29,1.07-.59,1.6-.88Z"/>
      <path class="cls-1" d="m107.54,270.12c-2.3,9.29-5.49,17.31-11.77,24.36-3.39-7.4,4.3-23.91,11.77-24.36Z"/>
      <path class="cls-1" d="m48.88,382.03c-1.16-9.38-2.26-18.05-3.27-26.74-.14-1.24.19-2.53.32-3.9,6.43,3.2,8.22,20.56,2.95,30.65Z"/>
      <path class="cls-1" d="m216.02,577.97c-4.26,5.92-9.4,9.2-15.52,10.97-.99.29-3.25-.5-3.33-1.04-.22-1.45-.13-3.63.8-4.46,4.85-4.37,10.65-6.14,18.06-5.47Z"/>
      <path class="cls-1" d="m302,266.25c1.14-2.04,1.51-3.68,2.43-4.09.88-.39,2.95.11,3.42.88,2.13,3.48,4.03,7.14,5.65,10.88.34.78-.56,2.73-1.41,3.2-.88.49-3.04.3-3.52-.39-2.42-3.4-4.47-7.05-6.57-10.49Z"/>
      <path class="cls-1" d="m35.23,334.78c5.04,5.01,4.44,15.66-.92,21.18-3.29-5.19-2.92-16.28.92-21.18Z"/>
      <path class="cls-1" d="m150.33,323.5c1.34-2.77,2.25-5.15,3.68-7.15.28-.4,3.35.24,3.78,1.09,1.08,2.14,2.36,4.94,1.78,6.98-.79,2.79-3.23,5.11-4.96,7.63-1.39-2.78-2.79-5.56-4.28-8.55Z"/>
      <path class="cls-1" d="m187.5,153.54c19.03-2.93,28.9-1.18,29.09,5.49-9.81-1.85-19.45-3.67-29.09-5.49Z"/>
      <path class="cls-1" d="m17.77,346.93c.27-4.36.54-8.71.83-13.39-2,.43-3.68.8-5.44,1.18.04-.41,0-.63.08-.73,2.22-2.67,4.82-6.45,8.31-4.27,1.87,1.17,2.32,5.82,2.09,8.8-.24,3.08-2.06,6.04-3.2,9.05-.89-.21-1.78-.43-2.67-.64Z"/>
      <path class="cls-1" d="m23.47,267.73c2.02-7.8,5.83-13.34,11.41-18.42,1.9,8.62-2.47,15.84-11.41,18.42Z"/>
      <path class="cls-1" d="m18.21,270.64c-3.19,5.39-6.6,9.44-12.02,11.3-.59-.26-1.18-.53-1.78-.79.87-2.67,1.2-5.72,2.74-7.91,2.37-3.37,6.08-4.23,11.05-2.6Z"/>
      <path class="cls-1" d="m150,564.18c5.29-1.91,12.5-.49,15.18,2.89.79.99.74,2.65,1.07,4-1.2.08-2.53.53-3.59.19-4.5-1.45-9.88-1.48-12.65-7.07Z"/>
      <path class="cls-1" d="m42.94,299.84c4.98,4.02,6.6,15.13,3.39,21.4-3.66-5.44-5.41-15.87-3.39-21.4Z"/>
      <path class="cls-1" d="m200.62,576.01c-9.89,1.74-18.16.86-26.8-1.89,4.46-3.23,17.54-2.37,26.8,1.89Z"/>
      <path class="cls-1" d="m218.95,548.71c-3.1-2.42-5.53-4.32-7.95-6.21,2.14-1.06,4.27-2.95,6.42-2.98,3.03-.03,7.36-.12,7.61,4.22.08,1.34-3.43,2.89-6.08,4.97Z"/>
      <path class="cls-1" d="m33.15,363.72c6.19,2.44,7.83,8.34,5.04,18.18-.47.14-.93.28-1.4.42-1.77-5.98-3.54-11.95-5.31-17.93.56-.22,1.12-.45,1.67-.67Z"/>
      <path class="cls-1" d="m33.47,306.39c-.81-7.49-3-15.02,1.1-22.57,3.54,4.61,3.03,16.92-1.1,22.57Z"/>
      <path class="cls-1" d="m134.7,510.2c5.3-.1,8.95,2.23,12.19,5.28.59.55.72,2.7.3,2.99-1.1.75-2.81,1.49-3.95,1.15-4.34-1.31-7.27-4.19-8.54-9.41Z"/>
      <path class="cls-1" d="m319.85,575.95c-2.81,2.17-4.82,4.88-6.4,4.64-1.99-.29-3.63-2.99-5.42-4.65,2.23-1.63,4.3-3.64,6.78-4.66.7-.29,2.59,2.32,5.04,4.66Z"/>
      <path class="cls-1" d="m200.49,144.07c-6.88,4.28-13.44,2.7-20.74,2.12,6.53-4.54,15.62-5.56,20.74-2.12Z"/>
      <path class="cls-1" d="m77.04,47.34c-5.38,4.55-11.35,7.22-19.97,6.41,6.69-5.05,12.66-7.7,19.97-6.41Z"/>
      <path class="cls-1" d="m97.38,385.16c-4.53-4.13-7.83-12.2-7.3-17.84,4.5,1.67,8.43,11.26,7.3,17.84Z"/>
      <path class="cls-1" d="m11.16,262.57c1.73-6.65,6.12-11.07,11.26-11.61.31,5.68-5.23,11.6-11.26,11.61Z"/>
      <path class="cls-1" d="m139.42,163.32c1.43-6.04,6.36-10.57,11.87-11.21.35,5.28-5.59,11.08-11.87,11.21Z"/>
      <path class="cls-1" d="m293.1,132.75c-4.87-1.43-8.98-2.49-12.94-3.97-.59-.22-1.03-3.25-.54-3.61,3.06-2.21,11.92,1.99,13.47,7.58Z"/>
      <path class="cls-1" d="m98.34,352.15c1.69-2.23,2.68-3.55,3.68-4.86,1.84,2.16,3.92,4.19,5.31,6.61.26.45-2.29,2.5-3.54,3.81-1.67-1.7-3.33-3.4-5.45-5.56Z"/>
      <path class="cls-1" d="m325.21,567.54c3.61-2.28,5.94-4.04,8.56-5.16.49-.21,2.09,2.21,3.18,3.41-2.38,1.65-4.66,3.48-7.21,4.79-.54.28-2.05-1.33-4.53-3.05Z"/>
      <path class="cls-1" d="m12.09,301.48c-2.23,2.16-3.8,4-5.74,5.25-.31.2-3.59-3.06-3.36-3.43,1.41-2.35,3.43-4.33,5.25-6.44,1.04,1.24,2.07,2.49,3.86,4.62Z"/>
      <path class="cls-1" d="m282.25,571.7c2.07,1.76,3.3,2.81,4.53,3.86-2.1,1.8-4.09,3.81-6.43,5.2-.38.23-2.38-2.26-3.63-3.49,1.67-1.68,3.34-3.37,5.53-5.57Z"/>
      <path class="cls-1" d="m165.49,583.63c1.87-2.11,2.94-3.33,4.01-4.54,1.77,2.13,3.79,4.12,5.09,6.5.28.51-2.13,2.47-3.3,3.76-1.77-1.74-3.53-3.49-5.8-5.72Z"/>
      <path class="cls-1" d="m270.95,394.33c-.32,4.34-.64,8.69-.96,13.03-.61.17-1.21.33-1.82.5-1.09-2.62-3.02-5.25-3.01-7.87.01-2.21,2.29-4.41,3.56-6.61.74.32,1.48.64,2.22.96Z"/>
      <path class="cls-1" d="m68.57,490.84c1.95-2.05,3.06-3.22,4.18-4.39,1.69,2.05,3.77,3.93,4.86,6.26.33.71-2.03,2.69-3.15,4.08-1.78-1.8-3.56-3.6-5.89-5.96Z"/>
      <path class="cls-1" d="m160.74,353.03c-5.77-3.54-7.09-7.56-5.2-15.08,3.31,4.6,6.23,8.71,5.2,15.08Z"/>
      <path class="cls-1" d="m112.38,408.22c-1.41-6.08-2.81-12.16-4.47-19.31,6.15,4.69,8.61,12.61,4.37,19.39-.02.01.1-.08.1-.08Z"/>
      <path class="cls-1" d="m383.58,476.79c-.35,7.17-3.73,10.99-10,11.83,1.17-5.9,6.24-7.61,10-11.83Z"/>
      <path class="cls-1" d="m213.12,563.14c1.77,2.53,3.74,4.13,3.5,5.28-.33,1.6-2.31,2.86-3.58,4.27-1.33-1.42-3.37-2.68-3.75-4.31-.25-1.09,1.89-2.72,3.82-5.23Z"/>
      <path class="cls-1" d="m197.7,185.53c-2.81,1.64-4.45,3.38-5.76,3.16-1.46-.24-2.62-2.27-3.91-3.52,1.44-1.32,2.73-3.37,4.38-3.72,1.09-.23,2.7,1.98,5.29,4.08Z"/>
      <path class="cls-1" d="m315.67,499.86c-2.17-5.09.39-7.47,3.82-9.18.56-.28,2.74.99,2.72,1.49-.17,4.03-2.46,6.45-6.54,7.69Z"/>
      <path class="cls-1" d="m392.16,442.48c2.93,2.51,6.13,4.5,3.38,8.54-.63.93-3.63,1.59-3.89,1.22-2.19-3.1-1.56-6.28.51-9.76Z"/>
      <path class="cls-1" d="m88.86,349.83c3.36,2.34,5.55,4.86,3.19,8.72-.5.82-3.34,1.36-3.71.9-2.53-3.11-1.88-6.3.53-9.62Z"/>
      <path class="cls-1" d="m206.72,500.53c-.83.17-1.5.52-1.74.33-2.39-1.9-4.71-3.9-7.05-5.86.78-.66,1.51-1.8,2.35-1.89,3.13-.33,6.17,3.17,6.44,7.42Z"/>
      <path class="cls-1" d="m51.32,446.4c-3.79-2.48-5.9-4.88-3.95-8.52.52-.97,3.47-1.89,3.87-1.47,2.83,2.95,1.46,6.16.08,9.99Z"/>
      <path class="cls-1" d="m51.08,277.58c-3.78-2.17-5.48-4.75-3.76-8.32.46-.95,3.42-1.89,3.81-1.48,2.79,2.91,1.96,6.13-.05,9.8Z"/>
      <path class="cls-1" d="m60.09,465.21c1.26,4.52,2.52,9.05,3.77,13.57-5.22-3.27-6.76-8.6-3.77-13.57Z"/>
      <path class="cls-1" d="m213.63,593c1.33-4.57,5.2-6.43,8.24-4.41.83.55,1.71,1.83,1.63,2.7-.07.8-1.36,2.08-2.17,2.12-2.51.13-5.04-.23-7.7-.4Z"/>
      <path class="cls-1" d="m77.78,473.35c-5.4.84-7.25-1.4-7.17-8.86,4.44,1.65,6.74,4.35,7.17,8.86Z"/>
      <path class="cls-1" d="m396.07,367.25c1.85,2.02,3.88,3.92,5.45,6.14.5.71-.22,2.29-.39,3.47-1.23-.22-3.12-.04-3.56-.75-1.44-2.35-2.36-5.01-3.48-7.56.66-.43,1.31-.87,1.97-1.3Z"/>
      <path class="cls-1" d="m63.05,454.78l-4.73-6.17c.28-.55.57-1.1.85-1.65,1.66.32,4.16.09,4.8,1.07,1.04,1.6.86,3.98,1.19,6.04-.7.24-1.41.47-2.11.71Z"/>
      <path class="cls-1" d="m83.68,315.79l-3.43-7.03c1.2-.25,2.65-1.06,3.56-.66,3.35,1.48,3.25,4.06-.13,7.68Z"/>
    </g>
  </g>
</svg>